<?xml version="1.0" standalone="no"?>
<!DOCTYPE svg PUBLIC "-//W3C//DTD SVG 20010904//EN"
 "http://www.w3.org/TR/2001/REC-SVG-20010904/DTD/svg10.dtd">
<svg version="1.0" xmlns="http://www.w3.org/2000/svg"
 width="213.000000pt" height="98.000000pt" viewBox="0 0 213.000000 98.000000"
 preserveAspectRatio="xMidYMid meet">

<g transform="translate(0.000000,98.000000) scale(0.100000,-0.100000)"
fill="#000000" stroke="none">
<path d="M270 815 c-7 -8 -9 -26 -5 -43 5 -27 -1 -35 -75 -98 -75 -64 -80 -71
-80 -108 l0 -39 23 21 c32 30 46 28 17 -3 -23 -24 -23 -25 -3 -25 28 0 83 39
110 79 17 25 23 48 23 87 0 50 2 54 24 54 22 0 24 -5 28 -59 3 -45 11 -68 32
-95 35 -47 79 -69 117 -61 25 6 29 11 29 39 0 29 -11 42 -84 107 -76 66 -84
76 -79 101 3 16 0 34 -7 43 -16 19 -54 19 -70 0z m200 -270 c7 -8 8 -15 2 -15
-5 0 -15 7 -22 15 -7 8 -8 15 -2 15 5 0 15 -7 22 -15z"/>
<path d="M115 710 c-4 -6 -3 -16 3 -22 6 -6 12 -6 17 2 4 6 3 16 -3 22 -6 6
-12 6 -17 -2z"/>
<path d="M495 680 c-7 -12 2 -30 16 -30 12 0 12 27 0 35 -5 3 -12 1 -16 -5z"/>
<path d="M810 635 c-6 -14 -15 -37 -21 -52 l-11 -28 -18 45 c-26 65 -40 63
-38 -7 l1 -58 6 45 7 45 18 -42 c10 -24 21 -43 25 -43 5 0 14 19 22 43 l14 42
6 -45 c6 -43 6 -42 7 18 2 67 -3 77 -18 37z"/>
<path d="M870 600 l0 -60 38 2 c36 1 36 1 5 5 -43 6 -47 40 -5 46 l27 4 -27 2
c-38 2 -41 41 -3 41 14 0 25 5 25 10 0 6 -13 10 -30 10 l-30 0 0 -60z"/>
<path d="M970 601 c0 -57 1 -61 23 -61 36 0 60 23 60 59 0 38 -9 49 -51 57
l-32 7 0 -62z m68 6 c4 -33 -13 -57 -39 -57 -16 0 -19 8 -19 46 0 44 1 45 28
42 21 -2 28 -9 30 -31z"/>
<path d="M1132 615 c-2 -55 10 -75 43 -75 33 0 45 20 43 74 l-1 51 -6 -49
c-11 -89 -67 -87 -74 2 l-3 47 -2 -50z"/>
<path d="M1340 635 c-6 -14 -15 -37 -21 -52 l-11 -28 -18 45 c-26 65 -40 63
-38 -7 l1 -58 6 45 7 45 18 -42 c10 -24 21 -43 25 -43 5 0 14 19 22 43 l14 42
6 -45 c6 -43 6 -42 7 18 2 67 -3 77 -18 37z"/>
<path d="M1080 595 c0 -30 5 -55 10 -55 6 0 10 25 10 55 0 30 -4 55 -10 55 -5
0 -10 -25 -10 -55z"/>
<path d="M286 584 c-9 -21 -34 -46 -61 -62 -24 -15 -45 -29 -45 -32 0 -3 17
-14 37 -25 20 -11 49 -39 64 -63 23 -37 28 -40 33 -24 9 28 76 92 103 98 29 8
29 20 1 28 -30 8 -61 35 -91 79 l-24 35 -17 -34z m59 -84 c3 -5 1 -19 -5 -30
-16 -31 -64 -24 -68 9 -7 45 49 61 73 21z"/>
<path d="M30 516 c-6 -8 -10 -25 -8 -38 4 -30 56 -38 74 -13 30 41 -33 90 -66
51z"/>
<path d="M520 516 c-6 -8 -10 -25 -8 -38 4 -30 56 -38 75 -12 17 23 16 29 -3
48 -19 20 -48 20 -64 2z"/>
<path d="M737 458 c-27 -22 -31 -61 -7 -91 25 -31 69 -36 94 -11 30 30 14 45
-23 22 -26 -16 -51 -3 -51 25 0 32 26 55 42 39 7 -7 20 -12 30 -12 16 0 17 3
8 20 -12 23 -66 28 -93 8z"/>
<path d="M877 452 c-25 -27 -22 -78 5 -96 48 -34 108 -7 108 48 0 19 -8 40
-18 49 -25 22 -75 21 -95 -1z m78 -32 c9 -27 -5 -50 -31 -50 -17 0 -25 7 -30
27 -12 46 47 68 61 23z"/>
<path d="M915 411 c-6 -11 9 -23 19 -14 9 9 7 23 -3 23 -6 0 -12 -4 -16 -9z"/>
<path d="M1010 405 c0 -58 2 -65 20 -65 16 0 20 7 20 33 1 26 2 29 11 15 14
-25 34 -22 47 5 10 20 11 19 11 -15 1 -27 5 -38 16 -38 12 0 15 14 15 65 0 58
-2 65 -20 65 -11 0 -25 -12 -34 -27 l-14 -28 -13 28 c-8 18 -20 27 -36 27 -22
0 -23 -4 -23 -65z"/>
<path d="M1180 405 c0 -51 3 -65 15 -65 11 0 15 11 16 38 0 34 1 35 11 15 6
-13 19 -23 28 -23 10 0 21 10 25 23 7 19 9 17 12 -15 3 -25 9 -38 19 -38 11 0
14 15 14 65 0 63 -1 65 -25 65 -18 0 -26 -7 -31 -25 -3 -14 -10 -25 -15 -25
-5 0 -11 11 -15 25 -4 18 -13 25 -30 25 -23 0 -24 -3 -24 -65z"/>
<path d="M1340 433 c0 -60 19 -88 60 -88 41 0 60 28 60 88 0 30 -4 37 -20 37
-17 0 -20 -7 -20 -51 0 -43 -3 -50 -17 -47 -14 2 -19 15 -21 51 -3 39 -6 47
-23 47 -15 0 -19 -7 -19 -37z"/>
<path d="M1480 405 c0 -51 3 -65 15 -65 10 0 15 10 15 30 0 17 4 30 8 30 4 0
16 -13 25 -30 31 -51 47 -39 47 35 0 50 -3 65 -14 65 -9 0 -16 -12 -18 -32
l-3 -33 -20 33 c-10 17 -27 32 -37 32 -15 0 -18 -9 -18 -65z"/>
<path d="M1620 405 c0 -51 3 -65 15 -65 12 0 15 14 15 65 0 51 -3 65 -15 65
-12 0 -15 -14 -15 -65z"/>
<path d="M150 440 c30 -24 19 -26 -15 -4 l-25 16 0 -38 c1 -36 7 -44 81 -108
73 -64 79 -72 74 -98 -8 -34 8 -58 40 -58 31 0 49 24 42 58 -5 25 3 35 79 101
74 64 84 77 84 106 0 29 -4 34 -29 40 -38 8 -82 -14 -117 -61 -21 -27 -29 -50
-32 -95 -4 -54 -6 -59 -28 -59 -22 0 -24 4 -24 54 0 39 -6 62 -23 87 -27 40
-82 79 -111 79 -20 0 -20 -1 4 -20z m320 -5 c-7 -8 -17 -15 -22 -15 -6 0 -5 7
2 15 7 8 17 15 22 15 6 0 5 -7 -2 -15z"/>
<path d="M525 311 c-3 -5 -1 -12 5 -16 12 -7 30 2 30 16 0 12 -27 12 -35 0z"/>
<path d="M120 300 c0 -5 5 -10 10 -10 6 0 10 5 10 10 0 6 -4 10 -10 10 -5 0
-10 -4 -10 -10z"/>
</g>
</svg>
