<svg width="59" height="68" viewBox="0 0 59 68" fill="none" xmlns="http://www.w3.org/2000/svg">
<path d="M30.2482 54.334V59.2702H28.9592V54.3976C28.9592 53.335 28.8799 52.274 28.7218 51.2233L28.6418 50.691C28.4151 49.1835 27.99 47.7127 27.3776 46.3167C26.8759 45.1732 26.2519 44.0874 25.5164 43.0783L25.3534 42.8546C24.2173 41.296 22.86 39.9114 21.3243 38.7445L20.5779 39.7268L21.3243 38.7445L20.4015 38.0433L20.3333 37.9915L20.2597 37.9478L19.5752 37.5414C18.2914 36.7793 16.9145 36.1864 15.4787 35.7772C14.6856 35.5512 13.8774 35.3822 13.0602 35.2713L11.1906 35.0176V32.9823L12.9629 32.7419C13.8481 32.6217 14.7231 32.4356 15.5805 32.185C17.6036 31.5938 19.5066 30.6503 21.2019 29.3979L21.6107 29.0959L21.6536 29.0642L21.6941 29.0296L23.178 27.761C24.3394 26.7682 25.345 25.6065 26.161 24.3147C26.6982 23.4643 27.1499 22.5629 27.5095 21.6235L27.788 20.896C28.1221 20.0236 28.3865 19.1261 28.579 18.2119C28.8318 17.0114 28.9592 15.788 28.9592 14.5612V8.72974H30.2482V13.648C30.2482 15.5102 30.5002 17.3638 30.9974 19.1583L31.1146 19.5811C31.6349 21.4592 32.4616 23.2457 33.5532 24.8585C34.45 26.1836 35.5247 27.3878 36.7418 28.4282C37.7472 29.2877 38.8571 30.0388 40.0245 30.6548C40.8397 31.085 41.6967 31.4575 42.5697 31.759L42.8373 31.8514C44.1949 32.3204 45.5957 32.6538 47.019 32.8469L48.0168 32.9823V35.0176L47.6042 35.0736C45.7873 35.3201 44.0009 35.7545 42.2737 36.3697L42.2021 36.3952L42.1335 36.4277L40.6947 37.111C39.5211 37.6684 38.4083 38.3455 37.3738 39.1315L37.0353 39.3887C36.0827 40.1125 35.2185 40.9459 34.4605 41.8715C33.639 42.8747 32.9487 43.9785 32.4063 45.1562L32.1271 45.7623C31.3193 47.5161 30.7634 49.3763 30.4762 51.2856C30.3245 52.2944 30.2482 53.3137 30.2482 54.334Z" fill="#053577" stroke="white" stroke-width="3"/>
<ellipse cx="29.6038" cy="34.291" rx="3.98262" ry="3.78275" fill="white"/>
<ellipse cx="5.09533" cy="34.291" rx="4.59533" ry="4.36471" fill="#053577"/>
<ellipse cx="54.1122" cy="34.291" rx="4.59533" ry="4.36471" fill="#053577"/>
<path d="M31.7483 7.22974L49.5169 22.9427V31.6721C39.7036 31.6721 31.7483 23.7168 31.7483 13.9035V7.22974Z" fill="black"/>
<path d="M27.4593 7.22974L9.69067 22.9427V31.6721C19.504 31.6721 27.4593 23.7168 27.4593 13.9035V7.22974Z" fill="black"/>
<path d="M27.4593 60.7703L9.69067 45.0573V36.3279C19.504 36.3279 27.4593 44.2832 27.4593 54.0965V60.7703Z" fill="#0E0E0E"/>
<path d="M31.7483 60.7703L49.5169 45.0573V36.3279C39.7036 36.3279 31.7483 44.2832 31.7483 54.0965V60.7703Z" fill="black"/>
<rect width="1.18562" height="8.40712" rx="0.592811" transform="matrix(0.654208 -0.756314 0.788367 0.615205 42.5722 27.2849)" fill="white"/>
<rect width="1.19181" height="8.36386" rx="0.595907" transform="matrix(0.727647 0.685951 -0.722475 0.691397 15.3702 25.5835)" fill="white"/>
<rect width="1.18511" height="8.41069" rx="0.592555" transform="matrix(-0.647692 0.761902 -0.793512 -0.608555 16.5196 40.8643)" fill="white"/>
<rect width="1.18592" height="8.40503" rx="0.592962" transform="matrix(0.658003 0.753016 -0.785324 0.619085 49.1179 35.5371)" fill="white"/>
<ellipse cx="11.5289" cy="13.0494" rx="1.83813" ry="1.74588" fill="black"/>
<ellipse cx="8.159" cy="10.4306" rx="0.919066" ry="0.872942" fill="black"/>
<ellipse cx="1.74629" cy="1.83775" rx="1.74629" ry="1.83775" transform="matrix(-0.0687997 0.99763 -0.99807 -0.0620948 51.5873 14.4365)" fill="black"/>
<ellipse cx="0.873144" cy="0.918874" rx="0.873144" ry="0.918874" transform="matrix(-0.0687997 0.99763 -0.99807 -0.0620948 53.5818 12.2278)" fill="black"/>
<ellipse cx="1.83789" cy="1.74614" rx="1.83789" ry="1.74614" transform="matrix(-0.998792 0.0491363 -0.0544509 -0.998516 55.2166 53.9026)" fill="black"/>
<ellipse cx="0.918946" cy="0.873069" rx="0.918946" ry="0.873069" transform="matrix(-0.998792 0.0491363 -0.0544509 -0.998516 57.7592 55.5256)" fill="black"/>
<ellipse cx="12.1414" cy="52.6227" rx="1.22542" ry="1.16392" fill="black"/>
<path d="M42.3609 36.8188C42.3127 36.8188 42.571 36.709 42.4094 36.7851C42.3261 36.8243 42.2574 36.9114 42.1911 36.9706C42.0947 37.0568 42.3976 37.0802 42.4579 37.1224C42.6158 37.2328 42.4793 37.0723 42.4283 36.9851C42.3527 36.8557 42.2568 36.5689 42.1184 36.4815C42.0485 36.4374 42.0505 36.2899 42.0214 36.2117" stroke="white" stroke-linecap="round"/>
<ellipse cx="29.6039" cy="63.6352" rx="4.59533" ry="4.36471" fill="black"/>
<ellipse cx="29.6039" cy="4.36471" rx="4.59533" ry="4.36471" fill="black"/>
</svg>
